<?xml version="1.0" encoding="iso-8859-1"?>
<!-- Uploaded to: SVG Repo, www.svgrepo.com, Generator: SVG Repo Mixer Tools -->
<!DOCTYPE svg PUBLIC "-//W3C//DTD SVG 1.1//EN" "http://www.w3.org/Graphics/SVG/1.1/DTD/svg11.dtd">
<svg fill="#000000" version="1.1" id="Capa_1" xmlns="http://www.w3.org/2000/svg" xmlns:xlink="http://www.w3.org/1999/xlink" 
	 width="800px" height="800px" viewBox="0 0 94 94" xml:space="preserve">
<g>
	<path d="M89,0H5C2.238,0,0,2.238,0,5v84c0,2.762,2.238,5,5,5h84c2.762,0,5-2.238,5-5V5C94,2.238,91.762,0,89,0z M86.074,63.496
		c-0.844,5.994-8.617,13.663-18.104,8.829c-9.375-4.777-6.605-20.535-2.279-35.166c-11.461,9.88-19.398,29.506-22.101,34.039
		c-2.561,4.297-7.496,0.625-7.523-1.354c-0.143-9.857,1.24-26.26,4.027-40.477C28.918,41.236,20.551,65.54,17.336,71.93
		c-2.059,4.096-7.34,0.487-7.289-1.539c0.367-14.182-2.027-21.179-2.176-22.709c-0.23-2.377,8.451-4.523,8.332,5.236
		c7.188-20.348,19.066-35.867,27.814-32.24c9.979,4.137,4.227,16.776,2.332,27.754c5.893-10.117,13.17-23.416,23.646-18.993
		c10.239,4.322-4.252,29.09,3.022,34.795c1.767,1.384,4.588,1.182,6.449-1.426c1.453-2.035,1.42-4.129,2.359-4.564
		C84.672,56.927,86.49,60.544,86.074,63.496z"/>
</g>
</svg>